# xmcd
#
# Track frame offsets:
#	150
#	20072
#	38826
#	56901
#	73438
#	91326
#	109251
#	127996
#	156426
#	171951
#	188713
#	209936
#	224101
#	241963
#	263188
#	285238
#	307138
#	322363
#
# Disc length: 4457 seconds
#
# Revision: 5
# Processed by: cddbd v1.5.2PL0 Copyright (c) Steve Scherf et al.
# Submitted via: audiograbber 1.83.01
#
DISCID=2c116712
DTITLE=Jean-Michel Jarre - Electronica 2 - The Heart Of Noise
DYEAR=2016
DGENRE=Electronic
TTITLE0=Jean-Michel Jarre and Rone - The Heart Of Noise Part 1
TTITLE1=Jean-Michel Jarre - The Heart Of Noise Part 2
TTITLE2=Jean-Michel Jarre and The Pet Shop Boys - Brick England
TTITLE3=Jean-Michel Jarre and Julia Holter - These Creatures
TTITLE4=Jean-Michel Jarre and Primal Scream - As One
TTITLE5=Jean-Michel Jarre and Gary Numan - Here For You
TTITLE6=Jean-Michel Jarre and Hans Zimmer - Electrees
TTITLE7=Jean-Michel Jarre and Edward Snowden - Exit
TTITLE8=Jean-Michel Jarre and Peaches - What You Want
TTITLE9=Jean-Michel Jarre and Sebastien Tellier - Gisele
TTITLE10=Jean-Michel Jarre and The Orb - Switch On Leon
TTITLE11=Jean-Michel Jarre and Siriusmo - Circus
TTITLE12=Jean-Michel Jarre and Yello - Why This, Why That And Why?
TTITLE13=Jean-Michel Jarre and Jeff Mills - The Architect
TTITLE14=Jean-Michel Jarre and Cyndi Lauper - Swipe To The Right
TTITLE15=Jean-Michel Jarre and Christophe - Walking The Mile
TTITLE16=Jean-Michel Jarre - Falling Down
TTITLE17=Jean-Michel Jarre - The Heart Of Noise (The Origin)
EXTD=
EXTT0=
EXTT1=
EXTT2=
EXTT3=
EXTT4=
EXTT5=
EXTT6=
EXTT7=
EXTT8=
EXTT9=
EXTT10=
EXTT11=
EXTT12=
EXTT13=
EXTT14=
EXTT15=
EXTT16=
EXTT17=
PLAYORDER=
